<?xml version="1.0" encoding="utf-8"?>
<!-- Generator: Adobe Illustrator 21.1.0, SVG Export Plug-In . SVG Version: 6.00 Build 0)  -->
<svg version="1.1" id="Layer_21" xmlns="http://www.w3.org/2000/svg" xmlns:xlink="http://www.w3.org/1999/xlink" x="0px" y="0px"
	 viewBox="0 0 219 170.8" style="enable-background:new 0 0 219 170.8;" xml:space="preserve">
<style type="text/css">
	.st0{fill:#FFFFFF;stroke:#000000;stroke-width:3;stroke-miterlimit:10;}
	.st1{fill:#478420;}
	.st2{fill:#8CCC66;}
	.st3{fill:#F9E385;}
	.st4{fill:#084DA0;}
	.st5{fill:#3680F1;}
	.st6{fill:#BBD8FC;}
	.st7{fill:none;stroke:#000000;stroke-width:3;stroke-miterlimit:10;}
	.st8{fill:none;stroke:#000000;stroke-width:2;stroke-miterlimit:10;}
</style>
<circle class="st0" cx="112.9" cy="85.3" r="47.6"/>
<title>IQTree_Final</title>
<g>
	<path class="st1" d="M116.5,29.1c1.2,2.8,2.1,5.6,2.9,8.3c17.3,2.4,31.6,13.9,38.1,29.5c2.2-2.2,4.4-4.6,6.4-7.3
		c6.8-9,10.1-18.4,11.6-27.2c-1.8-2-3.6-4-5.6-5.9c-19.7-18.7-46.3-25.7-71-21C105.5,11.1,112,18.7,116.5,29.1z"/>
	<path class="st2" d="M66.4,54.8c2.7,0.3,5.2,0.8,7.6,1.4c8.8-11.7,22.9-19.3,38.7-19.3c2.3,0,4.5,0.2,6.7,0.5
		c-0.7-2.7-1.7-5.5-2.9-8.3c-4.4-10.3-10.9-18-17.7-23.6c-16.2,3-31.6,11-43.8,23.8c-8.3,8.6-14.3,18.5-18,29.1
		C45.3,55.3,55.2,53.5,66.4,54.8z"/>
	<path class="st3" d="M68.6,105.3c-2.8-6.1-4.3-12.8-4.3-19.9c0-10.9,3.6-21,9.7-29.1c-2.4-0.6-5-1.1-7.6-1.4
		c-11.2-1.4-21.1,0.5-29.3,3.6c-9.4,26.8-4.3,57.4,15,79.9c1.5-8.7,4.8-18.2,11.6-27.2C65.2,109,66.9,107,68.6,105.3z"/>
	<path class="st4" d="M111,141.6c-1.2-2.7-2.1-5.4-2.8-8.1c-17.7-1.6-32.6-12.8-39.6-28.2c-1.7,1.8-3.4,3.7-5,5.8
		c-6.8,9-10.1,18.4-11.6,27.2c1.8,2,3.6,4,5.6,5.9c19.7,18.7,46.3,25.7,71,21C121.9,159.6,115.4,151.9,111,141.6z"/>
	<path class="st5" d="M161.1,115.8c-3.3-0.4-6.4-1.1-9.4-1.9c-8.8,12-23,19.8-39,19.8c-1.5,0-3-0.1-4.5-0.2c0.7,2.7,1.6,5.4,2.8,8.1
		c4.4,10.3,10.9,18,17.7,23.6c16.2-3,31.6-11,43.8-23.8c8.2-8.6,14.1-18.6,17.8-29.1C182.1,115.4,172.2,117.2,161.1,115.8z"/>
	<path class="st6" d="M175.4,32.4c-1.4,8.7-4.8,18.2-11.6,27.2c-2,2.7-4.2,5.1-6.4,7.3c2.4,5.7,3.7,11.9,3.7,18.5
		c0,10.7-3.5,20.6-9.4,28.6c3,0.8,6.1,1.5,9.4,1.9c11.2,1.4,21-0.5,29.3-3.6C199.8,85.5,194.7,54.8,175.4,32.4z"/>
</g>
<circle class="st7" cx="112.9" cy="85.3" r="47.6"/>
<circle class="st7" cx="113.7" cy="85.4" r="81.8"/>
<path class="st0" d="M133.7,121.9c2.1,0.9,4.7,1.8,6.5,3.4c3.4,3,4.7,8.3,5.8,12.5c2.2,8.9,4.5,18.4,11.7,24.8
	c7.4,6.6,18.3,9,27.8,6.3c8.7-2.5,16-9.2,18.5-18c0.5-1.8,0.8-3.7,0.6-5.5c-0.5-3.3-3.2-6.1-6.4-7c-3.3-0.9-6.6,0.4-8.9,2.7
	c-2.8,2.8-4.9,6.2-8.8,7.8c-4.7,2-10.4,0-13.2-4.3c-3.2-5-5.5-10.5-8.7-15.4c-3.5-5.3-8.2-9.1-14.5-10.7c-3.8-1-7.6-1.4-10.6,1.6
	C132.9,120.5,132.9,121.6,133.7,121.9z"/>
<path class="st0" d="M21.5,112c-0.2,8.5,0,17.1,0.5,25.6c0.4,7.3-0.4,16.5,4.3,22.6c4.4,5.8,13.9,6.9,19.3,2.1
	c4.9-4.3,5.1-10.5,5.1-16.5c-0.1-12.5-1.4-25.1-3-37.6c-1-8-7.7-23.4-18.7-18.2c-1.8,0.8-3.1,2.4-4.1,4.1
	C22,99.4,21.6,106.1,21.5,112z"/>
<circle class="st0" cx="32.1" cy="71.2" r="11.2"/>
<path class="st8" d="M157.7,66.7c7.1-8.2,13.1-16.9,18.1-33.8"/>
<path class="st8" d="M36.4,57.7c19.3-6.5,42-4.2,58.2,7.9c2.6-6.6,10.9-9.9,18.1-10.6c7.2-0.7,14.4,1.2,21.3,3.3
	c2.1-4.1,3.6-8.1,4.2-12.7"/>
<path class="st8" d="M112.2,55.2c1.5,1.9,2.1,3.7,2.5,6.3l0,0C103,63.9,95.6,73.2,96.9,87.4c-22.3,6-41,27.6-45.7,49.8"/>
<path class="st8" d="M105.8,85.9c1.8-0.3,3.6-0.6,5.4-0.9l0,0c-0.1,2.6,2.7,6.2,7.5,4.1c7.6,11.5,19.4,20.2,32.7,24.3
	c12.9,3.9,27,3.4,39.6-1.3"/>
<path class="st8" d="M100.9,70.1c1.6,1.7,4.6,4.1,6.2,5.7l0,0c-4.8,6.5-1.4,18,3.9,21.6l0,0c-1.5,2.1-2.3,3.7-2.9,6
	c-2.9,11.1-2.3,23,1.6,33.8s10.4,21,19.7,27.8"/>
<path class="st8" d="M120.1,36.4"/>
<path class="st8" d="M157.4,66.8"/>
<path class="st8" d="M119.9,37.7c-3.6-11.7-10.2-23.8-19.1-32.4"/>
</svg>
